<svg xmlns="http://www.w3.org/2000/svg" viewBox="0 0 100 100">
  <defs>
    <linearGradient id="fav2" x1="0%" y1="0%" x2="100%" y2="0%">
      <stop offset="0%" stop-color="#ff6a95"/>
      <stop offset="50%" stop-color="#a18cd1"/>
      <stop offset="100%" stop-color="#2575fc"/>
    </linearGradient>
  </defs>
  <g fill="url(#fav2)">
    <rect x="79.98" y="26.766" width="9.367" height="46.841"/>
    <rect x="93.094" y="32.386" width="3.748" height="37.477"/>
    <rect x="10.653" y="26.766" width="9.367" height="46.841"/>
    <rect x="3.158" y="32.386" width="3.748" height="37.477"/>
    <path d="M23.771,23.768v52.464h52.458V23.768H23.771z 
             M61.426,56.914h-0.038c-0.222,1.992-2.067,3.801-4.612,4.312
             c-3.011,0.604-5.838-0.84-6.313-3.223
             c-0.478-2.381,1.579-4.801,4.586-5.404
             c1.325-0.268,2.6-0.117,3.668,0.32V42.385
             l-12.183,4.688v13.904h-0.021
             c-0.006,2.141-1.922,4.158-4.633,4.703
             c-3.011,0.6-5.838-0.842-6.312-3.225
             c-0.478-2.385,1.572-4.803,4.586-5.406
             c1.325-0.266,2.603-0.113,3.672,0.32V41.342
             l17.599-6.766V56.914z"/>
  </g>
</svg>
